# xmcd
#
# Track frame offsets: 
#        183
#        13168
#        24763
#        36010
#        45758
#        56408
#        66915
#        81160
#        92118
#        107783
#        120683
#        133295
#        145810
#        160965
#        172593
#        187230
#        201835
#        212410
#        226600
#        239938
#        253888
#        268893
#        286455
#        297500
#        309385
#        326880
#
# Disc length: 4500 seconds
#
# Revision: 2
# Processed by: cddbd v1.5.2PL0 Copyright (c) Steve Scherf et al.
# Submitted via: ExactAudioCopy v0.99pb4
#
DISCID=8311921a
DTITLE=Various Artist - Capitol Country Music Classics 1970's
DYEAR=1991
DGENRE=Country
TTITLE0=Merle Haggard - The fightin' side of me
TTITLE1=Glen Campbell and Bobbie Gentry - All I have to do is dream
TTITLE2=Dick Curless - Big wheel cannonball
TTITLE3=Anne Murray - Snowbird
TTITLE4=Charlie Louvin and Melba Montgomery - Something to brag about
TTITLE5=Sonny James - Empty arms
TTITLE6=Red Simpson - I'm a truck
TTITLE7=Stoney Edwards - She's my rock
TTITLE8=Tex Ritter - Comin' after Jinny
TTITLE9=Red Stegall - The fiddle man
TTITLE10=Glen Campbell - Bonapart's retreat
TTITLE11=La Costa - Get on my love train
TTITLE12=Jessi Colter - I'm not Lisa
TTITLE13=Connie Cato - Hurt
TTITLE14=Glen Campbell - Rhinestone cowboy
TTITLE15=Asleep At The Wheel - The letter that Johnny Walker read
TTITLE16=Jessi Colter - What's happened to blue eyes
TTITLE17=Dr. Hook - A couple more years
TTITLE18=Merle Haggard - Cherokee maiden
TTITLE19=Asleep At The Wheel - Miles and miles of Texas
TTITLE20=Kenny Dale - Bluest heartache of the year
TTITLE21=Gene Watson - Paper Rosie
TTITLE22=Texas Playboys - Gamblin' polka dot blues
TTITLE23=Billy "Crash" Craddock - I cheated on a good woman's love
TTITLE24=Don Schlitz - The gambler
TTITLE25=Hank Cochran and Willie Nelson - Ain't life hell
EXTD=
EXTT0=
EXTT1=
EXTT2=
EXTT3=
EXTT4=
EXTT5=
EXTT6=
EXTT7=
EXTT8=
EXTT9=
EXTT10=
EXTT11=
EXTT12=
EXTT13=
EXTT14=
EXTT15=
EXTT16=
EXTT17=
EXTT18=
EXTT19=
EXTT20=
EXTT21=
EXTT22=
EXTT23=
EXTT24=
EXTT25=
PLAYORDER=
